<?xml version="1.0" standalone="no"?><!DOCTYPE svg PUBLIC "-//W3C//DTD SVG 1.1//EN" "http://www.w3.org/Graphics/SVG/1.1/DTD/svg11.dtd"><svg t="1681973156111" class="icon" viewBox="0 0 1035 1024" version="1.1" xmlns="http://www.w3.org/2000/svg" p-id="3739" xmlns:xlink="http://www.w3.org/1999/xlink" width="202.1484375" height="200"><path d="M251.627368 0H10.035292v241.592076h241.592076z m-46.105358 195.486718H56.14065V46.105358h149.38136zM815.956949 488.255741h-89.444394v46.105358h89.444394a218.539397 218.539397 0 0 0 0-436.61774H335.539119v46.105358h480.41783a172.434039 172.434039 0 0 1 0 344.407024zM56.14065 707.256191a172.434039 172.434039 0 0 1 172.434039-171.972985h88.983341v-46.105358H228.574689a218.539397 218.539397 0 1 0 0 436.61774h479.956776v-46.105358H228.574689A172.895092 172.895092 0 0 1 56.14065 707.256191z" p-id="3740" fill="#1afa29"></path><path d="M406.541371 396.506078h230.526789v230.52679h-230.526789zM793.826377 1024h241.592076V783.791085H793.826377zM839.931735 829.896443h149.38136v149.38136H839.931735z" p-id="3741" fill="#1afa29"></path></svg>